<svg width="80" height="80" viewBox="0 0 80 80" fill="none" xmlns="http://www.w3.org/2000/svg">
<path d="M61.1465 29.033C58.7898 29.033 56.8832 30.9396 56.8832 33.293V48.393C56.8832 49.5237 57.3323 50.6081 58.1319 51.4076C58.9314 52.2071 60.0158 52.6563 61.1465 52.6563C62.2772 52.6563 63.3616 52.2071 64.1611 51.4076C64.9607 50.6081 65.4098 49.5237 65.4098 48.393V33.293C65.4098 30.9396 63.5032 29.033 61.1465 29.033ZM18.8532 29.033C16.4965 29.033 14.5898 30.9396 14.5898 33.293V48.393C14.5898 49.5237 15.039 50.6081 15.8385 51.4076C16.6381 52.2071 17.7225 52.6563 18.8532 52.6563C19.9839 52.6563 21.0683 52.2071 21.8678 51.4076C22.6673 50.6081 23.1165 49.5237 23.1165 48.393V33.293C23.117 32.7331 23.007 32.1787 22.7928 31.6614C22.5787 31.1442 22.2646 30.6742 21.8686 30.2785C21.4726 29.8828 21.0024 29.5691 20.485 29.3554C19.9675 29.1417 19.413 29.0321 18.8532 29.033ZM48.4832 16.3363L51.0432 11.7096C51.118 11.5779 51.1659 11.4326 51.1841 11.2822C51.2023 11.1318 51.1904 10.9793 51.1492 10.8336C51.1079 10.6878 51.0381 10.5517 50.9438 10.4331C50.8495 10.3146 50.7326 10.2159 50.5998 10.143C50.4675 10.0683 50.3216 10.0207 50.1707 10.003C50.0197 9.98521 49.8668 9.99763 49.7207 10.0395C49.5746 10.0814 49.4383 10.1519 49.3197 10.2469C49.2011 10.3419 49.1026 10.4595 49.0298 10.593L46.3998 15.3263C44.4398 14.543 42.2798 14.0996 39.9998 14.0996C37.7198 14.0996 35.5598 14.5396 33.5998 15.323L30.9698 10.5963C30.8971 10.4629 30.7986 10.3452 30.68 10.2502C30.5614 10.1552 30.4251 10.0847 30.279 10.0428C30.1329 10.001 29.98 9.98855 29.829 10.0063C29.6781 10.0241 29.5322 10.0717 29.3998 10.1463C29.2677 10.2199 29.1515 10.3189 29.0577 10.4375C28.9639 10.5562 28.8944 10.6921 28.8532 10.8377C28.812 10.9832 28.7999 11.1354 28.8177 11.2856C28.8354 11.4358 28.8826 11.581 28.9565 11.713L31.5165 16.3396C26.9065 18.9663 23.8265 23.663 23.8265 29.033C23.8265 29.0696 23.8265 29.103 23.8332 29.1463C23.8265 29.1663 23.8265 29.1896 23.8265 29.2096V29.213H56.1698V29.2096V29.1463V29.033C56.1732 23.663 53.0932 18.9696 48.4832 16.3363ZM32.5332 22.8963C32.3815 22.8952 32.2315 22.8642 32.0918 22.8052C31.9521 22.7461 31.8254 22.6601 31.7189 22.5521C31.5039 22.3339 31.3843 22.0393 31.3865 21.733C31.3887 21.4266 31.5125 21.1337 31.7307 20.9187C31.9489 20.7037 32.2435 20.5841 32.5498 20.5863C32.8562 20.5885 33.1491 20.7123 33.3641 20.9305C33.5792 21.1486 33.6987 21.4433 33.6965 21.7496C33.6943 22.056 33.5705 22.3489 33.3523 22.5639C33.1342 22.7789 32.8395 22.8985 32.5332 22.8963ZM47.4665 22.8963C47.1758 22.8742 46.9041 22.7431 46.7059 22.5292C46.5077 22.3154 46.3976 22.0345 46.3976 21.743C46.3976 21.4514 46.5077 21.1706 46.7059 20.9567C46.9041 20.7429 47.1758 20.6118 47.4665 20.5896C47.7724 20.5896 48.0658 20.7111 48.282 20.9274C48.4983 21.1437 48.6198 21.4371 48.6198 21.743C48.6198 22.0488 48.4983 22.3422 48.282 22.5585C48.0658 22.7748 47.7724 22.8963 47.4665 22.8963ZM23.8265 53.733C23.8265 55.8863 25.5765 57.6363 27.7398 57.6363H29.6932V65.6396C29.6932 66.7703 30.1424 67.8547 30.9419 68.6543C31.7414 69.4538 32.8258 69.903 33.9565 69.903C35.0872 69.903 36.1716 69.4538 36.9711 68.6543C37.7707 67.8547 38.2198 66.7703 38.2198 65.6396V57.6363H41.7732V65.6396C41.7732 67.9963 43.6798 69.8996 46.0298 69.8996C48.3932 69.8996 50.2998 67.9963 50.2998 65.6396V57.6363H52.2532C54.4132 57.6363 56.1665 55.8896 56.1665 53.733V30.093H23.8265V53.733Z" fill="#222222"/>
</svg>
