<svg width="80" height="80" viewBox="0 0 80 80" fill="none" xmlns="http://www.w3.org/2000/svg">
<path d="M52.4912 42.4718V37.5283H57.4347V42.4718H52.4912Z" fill="#222222"/>
<path fill-rule="evenodd" clip-rule="evenodd" d="M40.1328 5.00494L72.2655 23.7507V56.2493L40.1328 75L8 56.2493V23.7507L40.1328 5V5.00494ZM34.3588 22.6977C29.9902 22.6977 25.8005 24.4332 22.7115 27.5222C19.6224 30.6113 17.887 34.8009 17.887 39.1695V40.8305C17.8877 43.6374 18.6056 46.3975 19.9726 48.849C21.3397 51.3004 23.3105 53.3619 25.6981 54.8377C28.0856 56.3135 30.8107 57.1548 33.6147 57.2816C36.4187 57.4083 39.2086 56.8165 41.7196 55.5621L43.7119 54.5734L41.4972 50.149L39.5099 51.1377C37.7533 52.0166 35.8012 52.4319 33.8389 52.3441C31.8767 52.2563 29.9694 51.6684 28.2983 50.6362C26.6271 49.604 25.2476 48.1618 24.2906 46.4465C23.3337 44.7311 22.831 42.7997 22.8305 40.8355V39.1744C22.8307 37.2099 23.333 35.278 24.2896 33.5621C25.2462 31.8462 26.6254 30.4032 28.2964 29.3702C29.9674 28.3371 31.8746 27.7481 33.8372 27.6593C35.7997 27.5704 37.7524 27.9845 39.5099 28.8623L41.4972 29.8559L43.7119 25.4364L41.7196 24.4428C39.4331 23.2972 36.9113 22.6997 34.3538 22.6977H34.3588ZM47.548 27.6412V32.5847H42.6045V37.5282H47.548V42.4718H42.6045V47.4153H47.548V52.3588H52.4915V47.4153H57.435V52.3588H62.3785V47.4153H67.322V42.4718H62.3785V37.5282H67.322V32.5847H62.3785V27.6412H57.435V32.5847H52.4915V27.6412H47.548Z" fill="#222222"/>
</svg>
