<svg width="80" height="80" viewBox="0 0 80 80" fill="none" xmlns="http://www.w3.org/2000/svg">
<g clip-path="url(#clip0_313_365)">
<path d="M43.4843 10C31.7068 10 21.5218 16.79 16.6093 26.6675H55.7118C58.5194 26.6758 61.24 25.6931 63.3943 23.8925C64.5093 22.955 65.5543 21.93 66.5118 20.785L66.5143 20.78C63.7022 17.4028 60.181 14.6862 56.2008 12.8232C52.2206 10.9601 47.8789 9.99622 43.4843 10ZM14.5093 32.2225C13.1427 37.3175 13.1427 42.6826 14.5093 47.7775H51.2593C53.322 47.7775 55.3002 46.9581 56.7588 45.4995C58.2174 44.041 59.0368 42.0627 59.0368 40C59.0368 37.9373 58.2174 35.9591 56.7588 34.5005C55.3002 33.0419 53.322 32.2225 51.2593 32.2225H14.5093ZM16.6093 53.3325C21.5243 63.2075 31.7093 70 43.4868 70C52.7393 70 61.0143 65.8075 66.5168 59.22L66.5143 59.215C65.5689 58.0892 64.5257 57.0493 63.3968 56.1075C61.2425 54.307 58.5219 53.3243 55.7143 53.3325H16.6093Z" fill="#222222"/>
</g>
<defs>
<clipPath id="clip0_313_365">
<rect width="60" height="60" fill="white" transform="translate(10 10)"/>
</clipPath>
</defs>
</svg>
