<svg width="80" height="80" viewBox="0 0 80 80" fill="none" xmlns="http://www.w3.org/2000/svg">
<g clip-path="url(#clip0_313_370)">
<path d="M61.5225 10.0001H18.4781C17.7679 9.99659 17.0641 10.1339 16.4072 10.404C15.7504 10.6741 15.1536 11.0717 14.6513 11.5738C14.149 12.0759 13.7512 12.6726 13.4809 13.3293C13.2105 13.9861 13.073 14.6899 13.0762 15.4001V64.6001C13.073 65.3103 13.2105 66.0141 13.4809 66.6708C13.7512 67.3275 14.149 67.9242 14.6513 68.4263C15.1536 68.9284 15.7504 69.326 16.4072 69.5961C17.0641 69.8663 17.7679 70.0035 18.4781 70.0001H61.5225C62.2325 70.0028 62.936 69.865 63.5925 69.5946C64.249 69.3242 64.8455 68.9266 65.3476 68.4246C65.8497 67.9227 66.2476 67.3263 66.5182 66.6699C66.7888 66.0135 66.9268 65.3101 66.9244 64.6001V15.4001C66.9276 14.6899 66.79 13.9861 66.5197 13.3293C66.2493 12.6726 65.8515 12.0759 65.3493 11.5738C64.847 11.0717 64.2502 10.6741 63.5934 10.404C62.9365 10.1339 62.2327 9.99659 61.5225 10.0001ZM63.9244 64.6001C63.9244 65.9482 62.8687 67.0019 61.5225 67.0019H18.4781C18.1617 67.0055 17.8478 66.9457 17.5548 66.8263C17.2618 66.7068 16.9956 66.53 16.7719 66.3063C16.5481 66.0825 16.3714 65.8164 16.2519 65.5234C16.1324 65.2304 16.0727 64.9165 16.0762 64.6001V15.4001C16.0762 14.0519 17.1319 12.9982 18.4781 12.9982H61.5225C62.8706 12.9982 63.9244 14.0538 63.9244 15.4001V64.6001ZM26.5725 60.9944L33.3206 55.0001L26.5725 49.0057V60.9944ZM50.88 36.7001C49.6781 35.4982 47.4319 34.0057 43.6819 34.0057C39.63 34.0057 35.43 35.0501 32.4319 36.1038V19.0057H26.4244V44.9501L30.6244 42.9982C30.6244 42.9982 37.53 39.8538 43.5244 39.8538C46.5225 39.8538 47.2744 41.5057 47.2744 42.9982V60.9963H53.28V42.9982C53.4281 42.5501 53.4281 39.2482 50.88 36.7001ZM42.93 28.7501H48.9244C51.6187 25.5944 52.9762 22.4501 53.4262 19.0057H47.4319C46.8244 22.4501 45.3225 25.5963 42.93 28.7501Z" fill="#222222"/>
</g>
<defs>
<clipPath id="clip0_313_370">
<rect width="60" height="60" fill="white" transform="translate(10 10)"/>
</clipPath>
</defs>
</svg>
