<svg width="80" height="80" viewBox="0 0 80 80" fill="none" xmlns="http://www.w3.org/2000/svg">
<g clip-path="url(#clip0_313_331)">
<path d="M53.3989 48.8906C54.9302 47.8438 57.0552 46.9375 57.0552 46.9375C57.0552 46.9375 51.0083 48.0312 44.9927 48.5312C37.6333 49.1406 29.727 49.2656 25.7583 48.7344C16.3677 47.4844 30.9145 44.0312 30.9145 44.0312C30.9145 44.0312 25.2739 43.6562 18.3208 47C10.1177 50.9687 38.6333 52.7812 53.3989 48.8906ZM40.0552 43.875C37.0864 37.2031 27.0708 31.3438 40.0552 21.0938C56.252 8.3125 47.9458 0 47.9458 0C51.3052 13.2031 36.1333 17.2031 30.6489 25.4062C26.9145 31.0156 32.477 37.0312 40.0552 43.875ZM57.9614 16.3438C57.977 16.3438 30.5864 23.1875 43.6645 38.25C47.5239 42.6875 42.6489 46.6875 42.6489 46.6875C42.6489 46.6875 52.4458 41.625 47.9458 35.2969C43.7427 29.3906 40.5239 26.4531 57.9614 16.3438ZM57.0083 58.6094C56.9229 58.7583 56.8178 58.8949 56.6958 59.0156C76.7427 53.75 69.3677 40.4375 59.7895 43.8125C59.2722 44.0026 58.8252 44.346 58.5083 44.7969C59.0676 44.5944 59.6424 44.4377 60.227 44.3281C65.0708 43.3125 72.0239 50.8125 57.0083 58.6094ZM64.377 68.3438C64.377 68.3438 66.6427 70.2031 61.8927 71.6562C52.8458 74.3906 24.2677 75.2188 16.3302 71.7656C13.4708 70.5312 18.8302 68.7969 20.5177 68.4375C22.2677 68.0625 23.2833 68.125 23.2833 68.125C20.1114 65.8906 2.76767 72.5156 14.4708 74.4062C46.3833 79.5938 72.6583 72.0781 64.377 68.3438ZM29.4458 61.875C17.1489 65.3125 36.9302 72.4062 52.5864 65.7031C51.0595 65.1099 49.5855 64.3886 48.1802 63.5469C41.1958 64.875 37.9614 64.9688 31.6177 64.25C26.3833 63.6563 29.4458 61.875 29.4458 61.875ZM57.5395 77.0625C45.2427 79.375 30.0708 79.1094 21.0864 77.625C21.0864 77.6094 22.9302 79.1406 32.3989 79.75C46.8052 80.6719 68.9302 79.2344 69.4458 72.4219C69.4458 72.4219 68.4458 75 57.5395 77.0625ZM50.727 55.1562C41.477 56.9375 36.1177 56.8906 29.352 56.1875C24.1177 55.6406 27.5395 53.1094 27.5395 53.1094C13.977 57.6094 35.0708 62.7031 54.0239 57.1562C52.799 56.7237 51.6766 56.0428 50.727 55.1562Z" fill="#222222"/>
</g>
<defs>
<clipPath id="clip0_313_331">
<rect width="60" height="80" fill="white" transform="translate(10)"/>
</clipPath>
</defs>
</svg>
