<svg width="80" height="80" viewBox="0 0 80 80" fill="none" xmlns="http://www.w3.org/2000/svg">
<path d="M10 10H70V70H10V10ZM65.0833 55.69C64.6467 52.9533 62.8633 50.6533 57.5767 48.5067C55.7367 47.6433 53.6933 47.0467 53.08 45.66C52.8533 44.8333 52.82 44.3867 52.9667 43.8967C53.3433 42.2833 55.2567 41.8 56.7567 42.2467C57.7333 42.5467 58.6333 43.2967 59.1967 44.5C61.78 42.81 61.78 42.81 63.5833 41.6867C62.9067 40.64 62.57 40.1833 62.12 39.7333C60.5433 37.9733 58.4433 37.0733 55.0333 37.15L53.2733 37.3733C51.5833 37.7867 49.97 38.69 48.9967 39.8867C46.1467 43.1133 46.97 48.7367 50.42 51.0667C53.83 53.6167 58.8233 54.1767 59.46 56.5767C60.06 59.5033 57.2867 60.44 54.5433 60.1033C52.52 59.65 51.3933 58.64 50.1567 56.7633L45.5833 59.39C46.1067 60.5867 46.7067 61.1133 47.6067 62.1633C51.9567 66.55 62.8333 66.3267 64.7833 59.65C64.8533 59.4267 65.3833 57.89 64.97 55.5267L65.0833 55.69ZM42.6267 37.5767H37.0067C37.0067 42.42 36.9833 47.2367 36.9833 52.09C36.9833 55.17 37.14 57.9967 36.6367 58.8667C35.8133 60.59 33.6833 60.37 32.72 60.0633C31.73 59.5767 31.2267 58.9 30.6433 57.9267C30.4867 57.6667 30.37 57.44 30.3267 57.44L25.7667 60.2533C26.53 61.83 27.6433 63.1833 29.08 64.0433C31.2167 65.32 34.0867 65.7333 37.0933 65.06C39.0533 64.4933 40.7433 63.33 41.62 61.53C42.9 59.2067 42.6267 56.3533 42.6167 53.1667C42.6433 48.03 42.6167 42.89 42.6167 37.7167L42.6267 37.5767Z" fill="#222222"/>
</svg>
