<svg width="80" height="80" viewBox="0 0 80 80" fill="none" xmlns="http://www.w3.org/2000/svg">
<g clip-path="url(#clip0_313_382)">
<path d="M57.3098 31.85C53.0965 13.25 43.1365 7.13667 42.0665 4.8C41.1331 3.48667 40.2998 1.62 39.6165 0C39.4965 1.65 39.4331 2.28333 37.8731 3.94667C35.4631 5.83333 23.0798 16.22 22.0731 37.3467C21.1331 57.0533 36.3065 68.7967 38.3665 70.2933L38.5998 70.46C39.0288 73.6325 39.3955 76.8131 39.6998 80H41.3031C41.6829 76.5605 42.2504 73.1442 43.0031 69.7667C44.3931 68.78 45.0165 68.2233 45.8365 67.4567C49.7197 63.8643 52.8057 59.497 54.8952 54.6371C56.9847 49.7772 58.031 44.533 57.9665 39.2433C57.9998 36.53 57.6231 33.7033 57.3098 31.85ZM39.5231 59.1667C39.5231 59.1667 39.5231 31.53 40.4398 31.5333C41.1498 31.5333 42.0731 67.1833 42.0731 67.1833C40.8031 67.0333 39.5231 61.3167 39.5231 59.1667Z" fill="#222222"/>
</g>
<defs>
<clipPath id="clip0_313_382">
<rect width="80" height="80" fill="white"/>
</clipPath>
</defs>
</svg>
