<svg width="80" height="80" viewBox="0 0 80 80" fill="none" xmlns="http://www.w3.org/2000/svg">
<path d="M39.9993 73.2835C39.0827 73.2835 38.226 73.0368 37.426 72.6101L29.296 67.7835C28.0793 67.1068 28.6893 66.8601 29.056 66.7368C30.7093 66.1868 31.016 66.0668 32.726 65.0935C32.9127 64.9701 33.156 65.0268 33.3427 65.1501L39.576 68.8835C39.8227 69.0035 40.1293 69.0035 40.3127 68.8835L64.7093 54.7601C64.956 54.6401 65.076 54.3935 65.076 54.0868V25.8935C65.076 25.5901 64.956 25.3435 64.7093 25.2235L40.3127 11.1601C40.0693 11.0368 39.7627 11.0368 39.576 11.1601L15.1727 25.2201C14.9293 25.3401 14.806 25.6502 14.806 25.8902V54.0802C14.806 54.3235 14.9293 54.6335 15.1727 54.7535L21.8393 58.6101C25.446 60.4368 27.7127 58.2935 27.7127 56.1601V28.3401C27.7127 27.9735 28.016 27.6035 28.446 27.6035H31.566C31.926 27.6035 32.2993 27.9101 32.2993 28.3401V56.1635C32.2993 60.9935 29.6727 63.8101 25.086 63.8101C23.6793 63.8101 22.5793 63.8101 19.4593 62.2768L13.0427 58.6135C12.2608 58.159 11.612 57.5073 11.161 56.7234C10.71 55.9396 10.4727 55.0511 10.4727 54.1468V25.9535C10.4727 24.1201 11.4493 22.4068 13.0427 21.4901L37.4293 7.36682C38.221 6.94343 39.1049 6.72192 40.0027 6.72192C40.9004 6.72192 41.7843 6.94343 42.576 7.36682L66.966 21.4901C68.5626 22.4035 69.536 24.1201 69.536 25.9535V54.1468C69.536 55.9768 68.5593 57.6901 66.966 58.6135L42.576 72.7335C41.7726 73.1001 40.856 73.2835 39.9993 73.2835ZM47.5193 53.8968C36.8193 53.8968 34.6193 49.0035 34.6193 44.8501C34.6193 44.4835 34.926 44.1135 35.3527 44.1135H38.5327C38.8993 44.1135 39.2027 44.3568 39.2027 44.7268C39.6926 47.9635 41.096 49.5568 47.5826 49.5568C52.716 49.5568 54.9226 48.3901 54.9226 45.6401C54.9226 44.0501 54.306 42.8901 46.2993 42.0968C39.636 41.4301 35.4793 39.9535 35.4793 34.6368C35.4793 29.6868 39.636 26.7501 46.6093 26.7501C54.4326 26.7501 58.286 29.4468 58.7726 35.3102C58.7668 35.508 58.7018 35.6996 58.586 35.8601C58.4626 35.9801 58.2826 36.1035 58.0993 36.1035H54.9226C54.7656 36.1001 54.6142 36.0446 54.4923 35.9456C54.3703 35.8466 54.2848 35.7098 54.2493 35.5568C53.5126 32.1835 51.6193 31.0901 46.6093 31.0901C40.9793 31.0901 40.306 33.0468 40.306 34.5135C40.306 36.2835 41.096 36.8335 48.686 37.8135C56.206 38.7901 59.7527 40.1968 59.7527 45.4601C59.686 50.8435 55.2893 53.8968 47.5193 53.8968Z" fill="#222222"/>
</svg>
