<svg width="80" height="80" viewBox="0 0 80 80" fill="none" xmlns="http://www.w3.org/2000/svg">
<path d="M52.8235 10C50.4902 10.0178 48.1704 10.3559 45.9291 11.005L45.7735 11.0556C44.3634 10.8113 42.9368 10.6741 41.506 10.645C38.5566 10.5944 36.0254 11.3069 33.9854 12.4994C31.9735 11.8075 27.8035 10.5944 23.4085 10.84C20.3541 11.005 17.0129 11.9331 14.5304 14.5506C12.0704 17.1588 10.7635 21.2012 11.0354 26.71C11.1123 28.2231 11.5435 30.6925 12.2654 33.9044C12.9779 37.1087 13.9848 40.8587 15.2448 44.2862C16.5048 47.7044 17.8791 50.7794 20.0298 52.8681C21.1023 53.9125 22.5873 54.8031 24.3348 54.7262C25.5573 54.6756 26.6598 54.1394 27.6179 53.3481C28.0848 53.9631 28.5854 54.2256 29.0335 54.4713C29.611 54.7844 30.1566 54.9981 30.7341 55.1369C31.7691 55.3994 33.5373 55.7425 35.6073 55.39C36.361 55.2544 37.0957 55.0284 37.7954 54.7169L37.8835 57.1675C37.9904 59.755 38.0616 62.1475 38.8304 64.2475C38.9579 64.5906 39.301 66.3475 40.6473 67.9094C42.0048 69.4712 44.6391 70.4387 47.6579 69.7937C49.7785 69.3438 52.4823 68.5244 54.2804 65.9669C56.0579 63.4469 56.8585 59.8244 57.016 53.9444C57.0535 53.6219 57.1041 53.3594 57.151 53.1044L57.571 53.1437H57.6216C59.8866 53.2412 62.3485 52.9188 64.4091 51.9606C66.2241 51.1206 67.6023 50.2712 68.6073 48.7581C68.8529 48.385 69.1341 47.9275 69.2054 47.1456C69.2823 46.375 68.8323 45.1525 68.0898 44.5881C66.6066 43.4556 65.6691 43.885 64.6623 44.1006C63.6762 44.3131 62.6725 44.4336 61.6641 44.4606C64.5535 39.5987 66.6235 34.4237 67.8066 29.8506C68.5098 27.145 68.9016 24.655 68.9298 22.4781C68.9691 20.3013 68.7854 18.3775 67.4841 16.7088C63.4023 11.5038 57.6685 10.0563 53.236 10.0094H52.8254L52.8235 10ZM52.7054 11.6031C56.896 11.5638 62.2548 12.7356 66.1023 17.6556C66.9723 18.76 67.2273 20.3706 67.1973 22.3637C67.1673 24.3569 66.7979 26.7288 66.1229 29.3369C64.8254 34.3975 62.3523 40.2738 58.8873 45.5594C59.0065 45.6492 59.1378 45.7218 59.2773 45.775C59.9991 46.0769 61.6491 46.33 64.9491 45.6569C65.7798 45.4788 66.3873 45.3644 67.021 45.8425C67.1748 45.9722 67.2963 46.136 67.3757 46.3209C67.4551 46.5058 67.4903 46.7066 67.4785 46.9075C67.4444 47.212 67.3298 47.5019 67.1466 47.7475C66.511 48.7019 65.2548 49.6131 63.6423 50.365C62.2173 51.0269 60.1641 51.37 58.3604 51.3906C57.4435 51.4 56.6035 51.3306 55.8873 51.1056L55.8498 51.0981C55.5741 53.7438 54.9423 58.9788 54.5298 61.36C54.1998 63.2819 53.6223 64.8175 52.5198 65.9594C51.4154 67.1125 49.8629 67.795 47.7629 68.245C45.166 68.8019 43.2798 68.2056 42.061 67.18C40.8423 66.1544 40.2835 64.7875 39.9516 63.9569C39.7191 63.3813 39.601 62.6387 39.4848 61.6413C39.3571 60.4503 39.2721 59.2552 39.2298 58.0581C39.1529 55.9581 39.1229 53.8581 39.1529 51.7488C38.0695 52.742 36.7237 53.4033 35.2754 53.6537C33.5485 53.9463 32.0148 53.6538 31.0979 53.4288C30.6455 53.3134 30.2091 53.1427 29.7985 52.9206C29.3691 52.6956 28.9679 52.4425 28.696 51.9325C28.5394 51.6404 28.4909 51.3024 28.5591 50.9781C28.6402 50.6487 28.8297 50.3561 29.0973 50.1475C29.5941 49.7444 30.2504 49.5231 31.2348 49.3169C33.0329 48.9437 33.6666 48.6925 34.0473 48.3869C34.3698 48.1338 34.7429 47.6069 35.3841 46.8344C35.3841 46.8063 35.3841 46.7669 35.3748 46.7369C34.2129 46.7015 33.0755 46.3939 32.0541 45.8387C31.6848 46.2288 29.7591 48.2612 27.4266 51.0737C26.4498 52.2438 25.366 52.9188 24.2148 52.9694C23.0729 53.0163 22.0341 52.4425 21.1566 51.5912C19.3998 49.8812 17.9916 46.9412 16.771 43.6206C15.5504 40.3 14.5641 36.6006 13.8516 33.4563C13.1485 30.3006 12.7285 27.7619 12.6685 26.5412C12.406 21.3362 13.6266 17.8319 15.7154 15.6137C17.8041 13.3956 20.6673 12.5669 23.461 12.4019C28.471 12.1188 33.2354 13.8663 34.1935 14.2375C36.0479 12.9775 38.4404 12.1975 41.4291 12.2444C42.8455 12.2652 44.2548 12.4489 45.6291 12.7919L45.6798 12.7619C46.2844 12.5525 46.9004 12.3772 47.5248 12.2369C49.2217 11.8386 50.9569 11.6255 52.6998 11.6012L52.7054 11.6031ZM53.086 13.2719H52.7166C51.2916 13.2887 49.8535 13.4575 48.4585 13.7594C51.5729 15.1375 53.926 17.2544 55.5854 19.3844C56.7385 20.8488 57.6854 22.4594 58.4073 24.1788C58.6923 24.8444 58.8779 25.3994 58.9754 25.8288C59.0335 26.0444 59.0635 26.2281 59.0823 26.4137C59.0823 26.5112 59.0916 26.6106 59.0429 26.7756C59.0429 26.785 59.0335 26.8056 59.0335 26.815C59.1141 29.0031 58.5666 30.4844 58.4954 32.575C58.4485 34.09 58.8385 35.8675 58.936 37.81C59.0241 39.6344 58.801 41.6369 57.6179 43.6094C57.7154 43.7275 57.8035 43.8438 57.901 43.9712C61.036 39.0287 63.301 33.5706 64.5029 28.9113C65.1479 26.4006 65.4873 24.1263 65.5173 22.3319C65.5473 20.5338 65.2154 19.225 64.7841 18.6794C61.4241 14.3913 56.8848 13.2962 53.0841 13.27L53.086 13.2719ZM41.1029 13.915C38.1554 13.9244 36.0348 14.815 34.426 16.1519C32.7629 17.5394 31.651 19.4237 30.9291 21.3663C30.0591 23.6612 29.7573 25.8869 29.6391 27.4019L29.6785 27.3813C30.7195 26.7983 31.8374 26.3647 32.9991 26.0931C34.2498 25.7987 35.6073 25.7106 36.826 26.1906C38.0579 26.6575 39.0629 27.7806 39.4341 29.47C41.1948 37.615 38.8885 40.6431 38.0391 42.9269C37.7166 43.7575 37.4335 44.5975 37.2085 45.4562C37.3154 45.4356 37.4241 45.4056 37.531 45.3963C38.1366 45.3494 38.6035 45.5444 38.8791 45.6606C39.7398 46.0206 40.3248 46.7631 40.6473 47.6125C40.7264 47.8443 40.7848 48.0828 40.8216 48.325C40.8539 48.4263 40.871 48.5318 40.8723 48.6381C40.7738 51.7525 40.7832 54.8694 40.9004 57.9831C40.9604 59.3312 41.0485 60.5125 41.1554 61.45C41.2623 62.3781 41.4085 63.0906 41.5079 63.3344C41.8285 64.135 42.2973 65.1794 43.1485 65.8919C43.9885 66.6063 45.1979 67.075 47.416 66.6063C49.3379 66.1863 50.521 65.6181 51.3104 64.7987C52.1035 63.9681 52.5704 62.8263 52.8723 61.0788C53.3316 58.4519 54.2391 50.8337 54.3479 49.4087C54.301 48.3231 54.4548 47.4944 54.8073 46.8588C55.1579 46.2138 55.7054 45.8144 56.1854 45.5988C56.4179 45.4919 56.6429 45.4244 56.8285 45.3644C56.6321 45.0904 56.4302 44.8203 56.2229 44.5544C55.5385 43.724 54.976 42.8003 54.5523 41.8112C54.3574 41.3965 54.1421 40.9916 53.9073 40.5981C53.5773 40.0037 53.1573 39.25 52.7166 38.4006C51.8373 36.7206 50.881 34.6713 50.3823 32.6781C49.8854 30.685 49.8179 28.6262 51.0873 27.1806C52.2104 25.8906 54.1923 25.3562 57.1491 25.6581C57.061 25.3937 57.0141 25.1687 56.866 24.8275C56.1935 23.2479 55.3166 21.7634 54.2579 20.4119C51.7473 17.2 47.6748 14.0144 41.3973 13.9075L41.1029 13.915ZM24.5035 14.0425C24.1876 14.0422 23.8719 14.0522 23.5566 14.0725C21.0273 14.2206 18.6441 14.95 16.9341 16.7575C15.226 18.5744 14.1048 21.5331 14.3466 26.4456C14.3973 27.3831 14.7966 29.98 15.4885 33.0756C16.1841 36.1731 17.1685 39.8163 18.3516 43.0375C19.531 46.2494 20.9598 49.0525 22.3266 50.38C23.0091 51.0344 23.6035 51.3081 24.1416 51.2894C24.6798 51.2594 25.3341 50.9462 26.1348 49.99C27.5877 48.2369 29.096 46.5304 30.6573 44.8731C29.55 43.9092 28.703 42.6821 28.1945 41.3049C27.686 39.9278 27.5322 38.4447 27.7473 36.9925C28.0004 35.1475 28.0398 33.4169 28.0004 32.05C27.9723 30.7225 27.8823 29.845 27.8823 29.2881V29.2281L27.8729 29.2113C27.8729 26.3294 28.3829 23.4794 29.3579 20.7737C30.061 18.9062 31.0979 17.0238 32.6579 15.4881C31.126 14.98 28.3998 14.2206 25.4523 14.0725C25.1371 14.0522 24.8213 14.0422 24.5054 14.0425H24.5035ZM55.4973 27.2444C53.8004 27.2744 52.8516 27.715 52.3454 28.2794C51.6404 29.0912 51.5729 30.5163 52.0135 32.275C52.4504 34.0319 53.3616 35.995 54.211 37.6281C54.631 38.4475 55.0416 39.1806 55.3716 39.775C55.7148 40.3806 55.9585 40.8006 56.1048 41.1719C56.2416 41.5037 56.3991 41.7962 56.5548 42.07C57.2091 40.6825 57.3273 39.325 57.2579 37.9C57.1698 36.1431 56.761 34.345 56.8285 32.53C56.8979 30.4 57.3179 29.0125 57.3479 27.3719C56.7355 27.2909 56.1187 27.2483 55.501 27.2444H55.4973ZM34.9135 27.5406C34.396 27.5406 33.8785 27.6081 33.3704 27.7263C32.3634 27.9685 31.3939 28.3463 30.4885 28.8494C30.1838 29.0143 29.8934 29.2043 29.6204 29.4175L29.5604 29.4644C29.581 29.8375 29.6485 30.715 29.6785 32.0238C29.7085 33.4488 29.6785 35.2638 29.4066 37.2288C28.801 41.5056 31.906 45.0419 35.5491 45.0513C35.7648 44.1719 36.1135 43.2812 36.466 42.3456C37.4804 39.61 39.4735 37.6188 37.7935 29.8263C37.5216 28.5569 36.9741 28.0394 36.2204 27.7469C35.801 27.5992 35.358 27.53 34.9135 27.5425V27.5406ZM54.7079 28.0469H54.8354C54.991 28.0562 55.1485 28.0675 55.2835 28.105C55.4054 28.1289 55.5218 28.1753 55.6266 28.2419C55.6754 28.2711 55.7172 28.3106 55.7492 28.3575C55.7813 28.4044 55.8028 28.4577 55.8123 28.5138V28.5344C55.8118 28.6543 55.7815 28.7722 55.7241 28.8775C55.6504 29.0122 55.5589 29.1364 55.4523 29.2469C55.2001 29.5288 54.8584 29.7149 54.4848 29.7737C54.1233 29.8201 53.7575 29.7298 53.4591 29.5206C53.341 29.4349 53.2328 29.3361 53.1366 29.2262C53.0523 29.1375 52.9973 29.0249 52.9791 28.9037C52.9681 28.7882 53.0032 28.673 53.0766 28.5831C53.1635 28.4944 53.2626 28.4186 53.371 28.3581C53.6129 28.2213 53.9354 28.1238 54.3085 28.0731C54.4435 28.0562 54.5804 28.045 54.7079 28.0356V28.0469ZM35.1554 28.4669C35.2829 28.4669 35.431 28.4762 35.5679 28.495C35.9579 28.555 36.2898 28.6525 36.5523 28.8081C36.681 28.8708 36.7943 28.9611 36.8841 29.0725C36.9815 29.19 37.0305 29.3402 37.021 29.4925C36.9943 29.6369 36.9296 29.7715 36.8335 29.8825C36.7307 30.0077 36.6093 30.1165 36.4735 30.205C36.1486 30.4384 35.7471 30.5396 35.3504 30.4881C34.9485 30.4235 34.5803 30.2246 34.306 29.9237C34.1908 29.7999 34.0919 29.662 34.0116 29.5131C33.9241 29.3804 33.8863 29.221 33.9048 29.0631C33.9441 28.8006 34.1691 28.6525 34.3848 28.5756C34.6304 28.495 34.8929 28.4688 35.1554 28.4781V28.4669ZM57.8035 46.825H57.7941C57.4341 46.9619 57.1323 47.0125 56.8773 47.1306C56.6192 47.228 56.4071 47.4187 56.2829 47.665C56.116 47.95 55.9904 48.4581 56.0279 49.3244C56.1407 49.4055 56.267 49.4658 56.401 49.5025C56.821 49.63 57.5429 49.7181 58.3435 49.7069C59.9354 49.6862 61.8985 49.3169 62.9429 48.8275C63.7964 48.4319 64.5889 47.9161 65.296 47.2956C61.8104 48.0081 59.8491 47.8225 58.636 47.3256C58.338 47.1967 58.0586 47.0283 57.8054 46.825H57.8035ZM37.726 47.0594H37.6754C37.5404 47.0687 37.3529 47.1194 36.9723 47.53C36.1023 48.505 35.8004 49.12 35.0879 49.6881C34.366 50.2637 33.4379 50.5675 31.5723 50.9481C31.1743 51.0193 30.7869 51.1403 30.4191 51.3081C30.4866 51.3681 30.4866 51.3888 30.5935 51.4356C30.8691 51.5931 31.2179 51.7206 31.5029 51.7975C32.3035 51.9925 33.6104 52.2269 34.9885 51.9925C36.3554 51.7581 37.7804 51.1019 39.0029 49.3956C39.2185 49.1031 39.2354 48.6625 39.061 48.1938C38.8866 47.7363 38.5041 47.3256 38.2416 47.2188C38.0774 47.1423 37.9032 47.0893 37.7241 47.0613L37.726 47.0594Z" fill="#222222"/>
</svg>
