<svg width="80" height="80" viewBox="0 0 80 80" fill="none" xmlns="http://www.w3.org/2000/svg">
<path d="M39.9998 43.4334C43.2859 43.4334 45.9498 40.7695 45.9498 37.4834C45.9498 34.1974 43.2859 31.5334 39.9998 31.5334C36.7137 31.5334 34.0498 34.1974 34.0498 37.4834C34.0498 40.7695 36.7137 43.4334 39.9998 43.4334Z" fill="#222222"/>
<path d="M23.3405 49.3134L22.0238 48.9767C12.2438 46.5067 6.63379 42.3067 6.63379 37.47C6.63379 32.63 12.2471 28.4334 22.0238 25.9634L23.3405 25.63L23.7105 26.9334C24.6989 30.3457 25.9654 33.6713 27.4971 36.8767L27.7805 37.47L27.4971 38.0634C25.9638 41.2734 24.6938 44.6 23.7105 48.0134L23.3405 49.3134ZM21.4171 28.9967C13.9871 31.09 9.42379 34.2834 9.42379 37.47C9.42379 40.65 13.9838 43.8467 21.4171 45.9367C22.3271 43.0434 23.4271 40.2134 24.7005 37.47C23.4179 34.7221 22.321 31.8913 21.4171 28.9967ZM56.6571 49.3134L56.2905 48.0067C55.2994 44.5937 54.0318 41.2672 52.5005 38.06L52.2171 37.47L52.5005 36.8734C54.0338 33.67 55.2971 30.34 56.2905 26.9267L56.6571 25.6267L57.9738 25.96C67.7571 28.43 73.3638 32.6267 73.3638 37.47C73.3638 42.31 67.7538 46.5067 57.9738 48.9767L56.6571 49.3134ZM55.2905 37.47C56.6238 40.3567 57.7338 43.1967 58.5805 45.9367C66.0138 43.8467 70.5771 40.65 70.5771 37.47C70.5771 34.2834 66.0171 31.0934 58.5805 28.9967C57.6714 31.8905 56.5723 34.721 55.2905 37.47Z" fill="#222222"/>
<path d="M21.3966 28.9832L21.0299 27.6832C18.2766 17.9899 19.1099 11.0466 23.3199 8.62658C27.4366 6.24325 34.0599 9.05991 40.9966 16.1766L41.9432 17.1499L40.9966 18.1199C38.5328 20.6822 36.281 23.4401 34.2632 26.3666L33.8866 26.9066L33.2332 26.9599C29.6852 27.2386 26.1658 27.806 22.7099 28.6566L21.3966 28.9832ZM26.6699 10.5532C25.9232 10.5532 25.2632 10.7166 24.7066 11.0366C21.9466 12.6266 21.4599 18.1632 23.3599 25.6366C26.3299 24.9799 29.3266 24.5099 32.3466 24.2466C34.095 21.7668 36.0023 19.4029 38.0566 17.1699C33.7132 12.9466 29.6132 10.5532 26.6699 10.5532ZM53.3266 67.1666C49.3666 67.1666 44.2799 64.1799 38.9999 58.7599L38.0566 57.7899L38.9999 56.8232C41.464 54.2568 43.7169 51.4956 45.7366 48.5666L46.1099 48.0332L46.7566 47.9699C50.3059 47.6962 53.8266 47.1309 57.2832 46.2799L58.5999 45.9466L58.9699 47.2499C61.7099 56.9366 60.8799 63.8899 56.6766 66.3099C55.656 66.8884 54.4996 67.1841 53.3266 67.1666ZM41.9432 57.7666C46.2832 61.9899 50.3866 64.3866 53.3266 64.3866C54.0766 64.3866 54.7366 64.2199 55.2899 63.9032C58.0532 62.3099 58.5432 56.7632 56.6366 49.2899C53.6699 49.9499 50.6699 50.4232 47.6432 50.6866C45.9023 53.1703 43.9981 55.5355 41.9432 57.7666Z" fill="#222222"/>
<path d="M58.5997 28.9834L57.283 28.6534C53.8266 27.8002 50.3058 27.2327 46.7564 26.9567L46.1097 26.9001L45.7364 26.3601C43.7195 23.432 41.4664 20.6739 38.9997 18.1134L38.0564 17.1434L38.9997 16.1767C45.933 9.06341 52.553 6.24674 56.6764 8.62674C60.883 11.0501 61.7197 17.9934 58.9697 27.6834L58.5997 28.9834ZM47.643 24.2467C50.823 24.5301 53.8364 25.0067 56.6364 25.6367C58.5397 18.1634 58.053 12.6267 55.2897 11.0334C52.543 9.44341 47.373 11.8767 41.943 17.1701C43.9964 19.4034 45.903 21.7634 47.643 24.2467ZM26.6697 67.1667C25.4968 67.1835 24.3406 66.8878 23.3197 66.3101C19.1097 63.8901 18.2764 56.9401 21.0264 47.2501L21.3864 45.9467L22.703 46.2801C25.9164 47.0901 29.4564 47.6601 33.2297 47.9701L33.8764 48.0334L34.253 48.5667C36.2664 51.4934 38.5197 54.2567 40.9864 56.8234L41.933 57.7901L40.9864 58.7601C35.7097 64.1834 30.623 67.1667 26.6697 67.1667ZM23.3597 49.2934C21.4597 56.7667 21.9464 62.3134 24.7064 63.9067C27.4564 65.4734 32.6097 63.0567 38.0564 57.7667C36.0029 55.5331 34.0956 53.1693 32.3464 50.6901C29.3233 50.4227 26.3213 49.9562 23.3597 49.2934Z" fill="#222222"/>
<path d="M40.0002 51.0432C37.7102 51.0432 35.3602 50.9465 33.0002 50.7499L32.3469 50.6932L31.9702 50.1532C30.6394 48.2395 29.3872 46.2724 28.2169 44.2565C27.0552 42.2353 25.9754 40.1681 24.9802 38.0599L24.7002 37.4699L24.9802 36.8732C25.9769 34.7665 27.0535 32.6999 28.2169 30.6799C29.3735 28.6932 30.6369 26.7065 31.9702 24.7799L32.3469 24.2465L33.0002 24.1865C37.6565 23.7965 42.3372 23.7965 46.9935 24.1865L47.6402 24.2499L48.0169 24.7832C50.6828 28.6124 53.0243 32.6576 55.0169 36.8765L55.2935 37.4732L55.0169 38.0632C53.0298 42.2851 50.6881 46.3307 48.0169 50.1565L47.6402 50.6965L46.9935 50.7532C44.6402 50.9432 42.2869 51.0432 40.0002 51.0432ZM33.8869 48.0299C38.0035 48.3399 41.9969 48.3399 46.1102 48.0299C48.4065 44.6672 50.4478 41.1374 52.2169 37.4699C50.454 33.7991 48.4125 30.2687 46.1102 26.9099C42.0418 26.5965 37.9553 26.5965 33.8869 26.9099C31.5827 30.2675 29.541 33.798 27.7802 37.4699C29.5531 41.1354 31.5942 44.6649 33.8869 48.0299Z" fill="#222222"/>
</svg>
