<svg width="80" height="80" viewBox="0 0 80 80" fill="none" xmlns="http://www.w3.org/2000/svg">
<path d="M66.0003 55.6665C66.0003 55.6665 72.0003 54.9998 72.0003 47.6665C72.0003 40.3332 65.0003 39.3332 65.0003 39.3332H52.3337V63.3332H58.667V57.6665L64.3337 63.3332H73.3337L66.0003 55.6665ZM63.3337 50.9998H58.3337V45.6665H63.3337C63.3337 45.6665 64.667 46.3332 64.667 48.3332C65.0003 50.3332 63.3337 50.9998 63.3337 50.9998ZM71.0003 27.3332V27.9998C44.0003 20.3332 33.3337 43.9998 35.3337 62.3332H14.3337C16.667 44.3332 39.3337 8.6665 71.0003 27.3332ZM68.3337 22.9998C66.0003 21.9998 63.667 20.9998 61.3337 20.3332L61.667 15.9998L68.667 18.6665L68.3337 22.9998ZM61.667 28.9998C64.0003 28.9998 66.3337 29.3332 68.667 29.9998L68.3337 33.9998L62.3337 33.3332L61.667 28.9998ZM46.3337 19.3332L45.0003 15.3332L52.0003 14.6665L53.3337 18.9998C52.667 18.9998 47.0003 19.3332 46.3337 19.3332ZM50.667 31.6665C52.0003 30.9998 54.3337 29.9998 57.3337 29.3332L58.667 33.3332L52.667 35.6665L50.667 31.6665ZM39.3337 21.6665C37.3337 22.6665 35.3337 23.6665 33.3337 24.9998L30.667 20.6665L36.667 17.3332L39.3337 21.6665ZM47.667 33.6665L50.3337 37.6665L46.667 41.9998L43.0003 38.6665C44.0003 36.6665 45.667 34.9998 47.667 33.6665ZM38.667 49.9998C39.0003 47.3332 39.667 44.9998 40.667 42.3332L44.667 45.6665L43.667 51.9998L38.667 49.9998ZM26.3337 30.9998C24.667 32.6665 23.0003 34.6665 21.667 36.3332L17.3337 32.6665L22.3337 27.3332L26.3337 30.9998ZM16.0003 45.6665C14.667 48.3332 13.667 50.9998 12.667 53.3332L6.66699 50.9998L9.66699 43.3332L16.0003 45.6665ZM38.3337 54.3332L44.3337 56.3332L45.3337 62.9998L38.667 61.3332C38.667 60.6665 38.3337 58.3332 38.3337 54.3332Z" fill="#222222"/>
</svg>
